HIERARCHY
ROOT Hips
{
  OFFSET 57.8838 95.319 338.509
  CHANNELS 6 Xposition Yposition Zposition Zrotation Xrotation Yrotation
  JOINT LeftUpLeg
  {
    OFFSET 8.64259 1.95398 -2.38835
    CHANNELS 3 Zrotation Xrotation Yrotation
    JOINT LeftLeg
    {
      OFFSET 43.7702 0 0
      CHANNELS 3 Zrotation Xrotation Yrotation
      JOINT LeftFoot
      {
        OFFSET 40.6238 0 0
        CHANNELS 3 Zrotation Xrotation Yrotation
        JOINT LeftToeBase
        {
          OFFSET 12.7242 0 0
          CHANNELS 3 Zrotation Xrotation Yrotation
          End Site
          {
            OFFSET 0 0 0
          }
        }
      }
    }
  }
  JOINT RightUpLeg
  {
    OFFSET -8.2249 1.95398 -2.59336
    CHANNELS 3 Zrotation Xrotation Yrotation
    JOINT RightLeg
    {
      OFFSET 43.5653 0 0
      CHANNELS 3 Zrotation Xrotation Yrotation
      JOINT RightFoot
      {
        OFFSET 40.6238 0 0
        CHANNELS 3 Zrotation Xrotation Yrotation
        JOINT RightToeBase
        {
          OFFSET 12.7242 0 0
          CHANNELS 3 Zrotation Xrotation Yrotation
          End Site
          {
            OFFSET 0 0 0
          }
        }
      }
    }
  }
  JOINT Spine
  {
    OFFSET 0.165834 0.87714 6.61349
    CHANNELS 3 Zrotation Xrotation Yrotation
    JOINT Spine1
    {
      OFFSET 7.38963 1.71661e-005 0
      CHANNELS 3 Zrotation Xrotation Yrotation
      JOINT Spine2
      {
        OFFSET 11.9445 1.14441e-005 0
        CHANNELS 3 Zrotation Xrotation Yrotation
        JOINT Spine3
        {
          OFFSET 14.7254 4.19617e-005 0
          CHANNELS 3 Zrotation Xrotation Yrotation
          JOINT Spine4
          {
            OFFSET 10.9679 0 0
            CHANNELS 3 Zrotation Xrotation Yrotation
            JOINT RightShoulder
            {
              OFFSET 2.46616 -1.6653 3.69651
              CHANNELS 3 Zrotation Xrotation Yrotation
              JOINT RightArm
              {
                OFFSET 13.0012 0 0
                CHANNELS 3 Zrotation Xrotation Yrotation
                JOINT RightForeArm
                {
                  OFFSET 28.7848 1.62311e-005 0
                  CHANNELS 3 Zrotation Xrotation Yrotation
                  JOINT RightHand
                  {
                    OFFSET 26.5688 1.62095e-005 0
                    CHANNELS 3 Zrotation Xrotation Yrotation
                    End Site
                    {
                      OFFSET 0 0 0
                    }
                  }
                }
              }
            }
            JOINT LeftShoulder
            {
              OFFSET 2.38034 -1.29275 -3.7523
              CHANNELS 3 Zrotation Xrotation Yrotation
              JOINT LeftArm
              {
                OFFSET 16.3182 6.07031e-005 0
                CHANNELS 3 Zrotation Xrotation Yrotation
                JOINT LeftForeArm
                {
                  OFFSET 27.0901 0 0
                  CHANNELS 3 Zrotation Xrotation Yrotation
                  JOINT LeftHand
                  {
                    OFFSET 24.5451 1.51738e-005 0
                    CHANNELS 3 Zrotation Xrotation Yrotation
                    End Site
                    {
                      OFFSET 0 0 0
                    }
                  }
                }
              }
            }
            JOINT Neck
            {
              OFFSET 5.0226 -0.0266342 0
              CHANNELS 3 Zrotation Xrotation Yrotation
              JOINT Head
              {
                OFFSET 6.69364 2.86102e-005 0
                CHANNELS 3 Zrotation Xrotation Yrotation
                End Site
                {
                  OFFSET 0 0 0
                }
              }
            }
          }
        }
      }
    }
  }
}
MOTION
Frames:	18
Frame Time:	0.0416667
-8.42247 97.117 8.02264 138.959 -85.017 139.346 -177.45 0.802441 89.1276 -15.0796 4.24818 1.91643 65.5215 3.72821 -0.663192 32.1745 1.34918 1.02556 172.693 1.36765 90.3198 -15.3218 -6.13589 -0.0660418 65.8225 -5.30675 2.44909 30.1912 -1.88126 0.624287 -0.295476 7.17393 -90.2123 12.525 -0.688085 -0.344456 0.854234 -0.702583 -0.313838 -21.6816 -0.552755 -0.53533 -1.66893 -0.552751 -0.535325 95.4508 -52.6988 -92.0783 27.1324 -1.56421 -11.122 5.14704 -1.84789 -11.5909 -21.2033 -0.90115 -0.280879 -82.2354 -53.0456 90.6618 -39.5378 -23.6665 -21.3653 2.94779 59.162 0.00382331 1.88859 -0.193459 -12.6566 16.1584 -2.31469 3.53183 -16.2911 -2.71623 -4.25195 
-8.40155 97.1157 7.99766 138.735 -85.2037 139.316 -177.396 0.857969 89.2538 -14.7954 3.8549 1.94397 65.6385 3.85176 -0.900866 32.1853 1.35576 0.955108 172.852 1.40958 90.5183 -15.0558 -6.08262 -0.0849408 65.6242 -5.17344 2.43812 30.2368 -1.9423 0.880075 -0.282359 7.16405 -90.2393 12.5446 -0.674882 -0.399697 0.873759 -0.691822 -0.369617 -21.6618 -0.523569 -0.584052 -1.64919 -0.523556 -0.584049 95.4668 -52.6113 -92.0654 27.1968 -1.59244 -11.1179 5.12744 -1.75584 -11.7254 -21.0384 -0.929638 -0.076587 -82.2634 -53.1711 90.6303 -39.353 -23.6144 -21.4142 2.80818 58.8534 0.00378918 1.85883 -0.193618 -12.8026 16.0091 -2.28961 3.58968 -15.7125 -2.71882 -4.30941 
-8.39169 97.1145 7.96787 138.1 -85.396 138.841 -177.434 1.14426 89.3606 -14.997 3.72676 2.01089 65.6392 3.74423 -0.887712 32.2694 1.38326 1.23404 173.002 1.56259 90.7252 -15.0082 -5.90284 -0.111701 65.6005 -5.10287 2.61598 30.2042 -1.89858 0.674927 -0.275282 7.14948 -90.2556 12.5735 -0.668666 -0.432892 0.902689 -0.687067 -0.403052 -21.6328 -0.507654 -0.61384 -1.62012 -0.50766 -0.61385 95.4448 -52.6599 -92.092 27.2032 -1.64484 -11.1326 5.21562 -1.39667 -11.8335 -21.4596 -0.977341 0.0759873 -82.2613 -53.1704 90.6337 -39.2146 -23.4623 -21.2421 2.6307 58.31 0.0037308 2.08101 -0.217137 -12.92 16.0591 -2.14587 3.8881 -15.7379 -2.5902 -4.91869 
-8.37359 97.1321 7.97353 137.445 -85.4057 138.157 -177.417 1.13437 89.3545 -14.8644 3.57472 1.9713 65.611 3.68289 -0.900057 32.0204 1.30375 0.361582 172.938 1.52147 90.6499 -14.9033 -5.81788 -0.0613788 65.6187 -5.09688 2.67022 30.1134 -1.77991 0.763734 -0.275939 7.16135 -90.2547 12.5498 -0.669462 -0.431109 0.878989 -0.687795 -0.40123 -21.6565 -0.508948 -0.612375 -1.64385 -0.508953 -0.612381 95.5261 -52.5115 -91.9885 27.3372 -1.64884 -11.2645 5.23634 -1.44189 -11.7843 -21.5722 -0.983762 0.0782393 -82.2484 -53.3591 90.6669 -39.0741 -23.4355 -21.3328 2.57265 58.3897 0.00373923 2.16613 -0.217918 -12.7624 16.4203 -2.03741 4.07723 -16.0442 -2.50351 -5.18931 
-8.36555 97.1269 7.95221 136.676 -85.3919 137.374 -177.459 1.03132 89.3266 -14.5613 3.78063 1.97125 65.4774 3.83198 -0.628271 32.1823 1.36391 0.588246 172.892 1.69976 90.623 -15.1527 -5.64745 -0.0288181 65.7471 -5.07824 2.77739 30.0526 -1.7012 0.899898 -0.282929 7.16482 -90.2528 12.5429 -0.682477 -0.425925 0.872085 -0.700557 -0.395489 -21.6634 -0.522932 -0.611353 -1.6508 -0.522918 -0.611352 95.46 -52.5594 -92.0818 27.2439 -1.71616 -11.1438 5.2921 -1.02886 -11.9164 -21.6544 -0.970302 -0.0133846 -82.1837 -53.4288 90.7665 -39.0418 -23.4505 -21.2655 2.58309 58.3653 0.00373665 2.34718 -0.237788 -12.8779 16.3171 -1.97016 4.12462 -15.969 -2.46293 -5.09052 
-8.35135 97.1251 7.92456 135.298 -85.3979 135.937 -177.516 1.25038 89.2643 -14.7649 4.03403 1.9545 65.4054 3.71045 -0.626669 32.2219 1.37529 0.779508 172.914 1.88338 90.5813 -15.2974 -5.42341 -0.070414 65.7928 -4.9204 2.89933 30.0779 -1.73462 0.945291 -0.290206 7.17852 -90.2476 12.5156 -0.694453 -0.414377 0.844736 -0.712013 -0.383422 -21.6909 -0.537813 -0.603937 -1.67822 -0.53781 -0.603939 95.3903 -52.6284 -92.1779 27.1863 -1.67091 -11.1662 5.16318 -1.4088 -12.0965 -21.3627 -1.08022 0.655798 -82.17 -53.2009 90.7692 -39.3263 -23.3571 -21.3155 2.57623 58.1922 0.00371842 2.66427 -0.250849 -12.6851 16.5671 -1.97625 3.90511 -16.1698 -2.45777 -4.67129 
-8.32272 97.1398 7.89255 134.967 -85.3717 135.575 -177.551 1.13347 89.2086 -14.5257 4.205 1.94097 65.4387 3.85964 -0.683338 32.0818 1.30174 1.3426 172.842 2.0954 90.5172 -15.496 -5.34111 -0.049801 65.8119 -4.8372 3.07027 30.0595 -1.71023 0.893562 -0.299898 7.19072 -90.2415 12.4912 -0.710711 -0.40035 0.820386 -0.727642 -0.368691 -21.7153 -0.557537 -0.595442 -1.70268 -0.557538 -0.595443 95.2227 -52.6502 -92.4264 27.148 -1.80271 -11.1512 5.25524 -1.27468 -11.9546 -21.7826 -1.05769 0.421395 -82.1677 -52.9911 90.7568 -39.4667 -23.2945 -21.179 2.52601 58.0801 0.00370674 3.15975 -0.283558 -12.5861 16.3342 -2.02713 3.97952 -16.3233 -2.47707 -4.98339 
-8.34435 97.1481 7.88222 135.479 -85.339 136.146 -177.455 1.20421 89.3153 -14.761 4.09536 1.9275 65.5448 3.85831 -0.697178 31.9507 1.24919 1.2649 173.011 1.85357 90.6674 -15.273 -5.15617 -0.180689 65.791 -4.80179 2.9423 29.9226 -1.53361 1.12934 -0.290494 7.22431 -90.2706 12.4237 -0.705815 -0.459715 0.752911 -0.725358 -0.428211 -21.7826 -0.535025 -0.65059 -1.76993 -0.535024 -0.650593 95.3618 -52.1561 -92.2805 27.5884 -1.58093 -11.221 5.24236 -1.26035 -11.7871 -21.4764 -0.945717 -0.103918 -82.0745 -53.4616 90.9278 -39.1375 -23.2513 -21.3205 2.4705 58.3208 0.00373194 3.21222 -0.302437 -12.9126 16.1762 -2.06185 3.95727 -15.7326 -2.57124 -4.59335 
-8.31987 97.1419 7.86388 133.924 -85.4387 134.517 -177.5 1.35813 89.2386 -14.6682 3.99452 1.86615 65.3927 3.64325 -0.811161 32.1058 1.32243 0.958983 172.886 1.70615 90.4601 -15.0146 -5.27525 -0.00452607 65.8438 -4.72972 3.07789 30.0476 -1.69415 0.839346 -0.279021 7.22362 -90.2636 12.4252 -0.679707 -0.448728 0.754371 -0.698801 -0.418379 -21.7811 -0.513433 -0.632258 -1.76842 -0.513432 -0.632269 95.3764 -52.1952 -92.2536 27.5292 -1.58861 -11.1742 5.14363 -1.58543 -11.8793 -21.0759 -1.02294 0.422268 -82.2453 -53.454 90.6788 -39.2218 -23.4008 -21.3792 2.67862 58.5851 0.00376009 3.13868 -0.278805 -12.556 15.6148 -1.99477 4.20808 -15.5498 -2.53366 -4.84733 
-8.33539 97.1499 7.82209 135.043 -85.4363 135.663 -177.507 1.35471 89.2475 -14.7938 3.95744 1.90756 65.4473 3.64451 -0.857727 31.9652 1.25963 1.11285 172.926 2.00784 90.5595 -15.2964 -5.38179 -0.0749106 65.7373 -4.74024 2.93855 30.0211 -1.65892 0.793354 -0.275229 7.2483 -90.2744 12.3758 -0.677176 -0.470866 0.70493 -0.697243 -0.440618 -21.8304 -0.504367 -0.65262 -1.81777 -0.504358 -0.65262 95.4808 -52.1547 -92.1012 27.5486 -1.367 -11.4823 5.14665 -1.74681 -11.4929 -20.9608 -1.02807 0.481357 -82.2064 -53.0321 90.7031 -39.6891 -23.2999 -21.2799 2.82806 59.1841 0.00382578 2.79411 -0.277498 -12.9846 14.1694 -2.02187 3.88449 -15.1414 -2.55697 -3.86452 
-8.37759 97.1614 7.71644 133.511 -85.2515 134.016 -177.618 1.3438 89.1383 -14.7026 4.12934 1.94289 65.2962 3.70227 -0.845785 31.9343 1.2361 1.4849 172.872 2.15316 90.4935 -15.4037 -5.42018 -0.0771794 65.6976 -4.84965 2.80436 29.9965 -1.62826 0.959925 -0.3071 7.26981 -90.2752 12.3326 -0.740876 -0.465659 0.661822 -0.760649 -0.432606 -21.8738 -0.566675 -0.666792 -1.86111 -0.566674 -0.666796 95.7114 -52.0714 -91.7633 27.4972 -1.40516 -11.8385 5.26322 -1.60996 -11.2907 -21.6205 -0.941485 -0.159265 -82.1209 -52.9541 90.8222 -39.9504 -23.5166 -21.6214 2.99992 63.0117 0.00431874 3.15591 -0.28253 -12.5182 11.1701 -1.88841 3.48512 -14.5985 -2.38321 -2.65005 
-8.40007 97.1596 7.57979 128.887 -85.2722 129.523 -177.637 1.8234 89.2882 -14.7609 4.09291 1.9357 65.1883 3.61988 -0.867566 32.1972 1.36831 0.655836 172.997 2.09369 90.6661 -14.8049 -5.46038 -0.00533613 65.4594 -4.9035 2.55486 30.0012 -1.63221 0.721814 -0.314568 7.29265 -90.2819 12.2869 -0.758773 -0.477384 0.616113 -0.779058 -0.443529 -21.9195 -0.580232 -0.683367 -1.90684 -0.580224 -0.683352 95.9795 -52.05 -91.3608 27.4724 -1.85525 -12.3277 5.20588 -1.41398 -11.6256 -21.3854 -0.988612 0.152069 -82.2229 -52.3258 90.624 -40.8243 -23.3897 -22.2239 3.4691 66.0086 0.00482017 3.17248 -0.286243 -12.4263 8.36607 -1.66504 2.0613 -16.5117 -2.07513 -0.0545281 
-8.47085 97.1642 7.24119 131.403 -85.0728 132.009 -177.871 1.79495 89.1608 -14.8872 4.23444 2.16113 65.1517 3.52708 -0.653254 31.8948 1.23192 1.05481 173.032 2.00329 90.6859 -14.7032 -5.95823 -0.0189487 65.1548 -4.96385 1.98819 30.0646 -1.71534 0.710942 -0.331468 7.42693 -90.2585 12.0186 -0.780936 -0.430443 0.347777 -0.799116 -0.395668 -22.1881 -0.615474 -0.645245 -2.17544 -0.615466 -0.645256 95.7647 -52.4313 -91.6396 26.9033 -2.51812 -12.9032 5.39604 -0.699169 -11.963 -21.9607 -0.851462 -0.716882 -82.0674 -52.2559 90.848 -40.5616 -22.7657 -22.3349 2.79506 63.1014 0.00433206 3.08628 -0.313268 -12.8115 4.60878 -1.424 1.14492 -17.5792 -1.8135 1.39587 
-8.51002 97.1894 6.86213 130.171 -85.2424 130.885 -177.817 2.2543 89.3099 -14.9169 4.19806 2.07605 64.9452 3.23576 -0.780926 32.0125 1.28273 0.979093 173.117 2.41041 90.7987 -14.6482 -5.94271 0.0391798 65.0966 -4.57245 2.08339 29.7804 -1.34387 0.84641 -0.323739 7.55872 -90.2419 11.7551 -0.75749 -0.402629 0.0842973 -0.774475 -0.368903 -22.4516 -0.601469 -0.611677 -2.43893 -0.60146 -0.611669 95.7724 -52.4181 -91.6296 26.9252 -3.25137 -13.6005 5.10525 -1.50879 -12.4098 -21.1454 -0.844829 -0.583086 -81.8481 -51.9374 91.1486 -40.0501 -21.4019 -22.2775 1.56524 58.1268 0.0037116 3.28414 -0.363097 -13.1237 0.765054 -1.24079 0.568135 -18.9146 -1.7383 2.81811 
-8.49069 97.2213 6.29705 132.826 -85.3806 133.443 -177.952 2.4197 89.1888 -14.6496 4.23253 2.04117 64.5942 3.11504 -0.505158 31.5798 1.10529 0.928546 173.003 2.8986 90.6003 -14.9355 -6.38059 0.18451 65.0551 -4.4256 2.2043 29.6342 -1.14812 0.618303 -0.291521 7.80721 -90.2372 11.2582 -0.690511 -0.403516 -0.412612 -0.707601 -0.372749 -22.9483 -0.537322 -0.592391 -2.93559 -0.537309 -0.592385 95.7856 -52.0602 -91.6524 26.8952 -4.10285 -14.6495 4.75297 -2.41806 -12.8975 -20.2921 -0.78708 -0.709973 -82.0457 -51.7369 90.8408 -39.8293 -20.4928 -22.6982 0.784128 56.4142 0.00296135 2.72986 -0.353464 -13.2979 -1.97553 -0.858975 1.43539 -20.9138 -1.471 2.6018 
-8.54297 97.24 5.54693 136.696 -85.2761 137.709 -177.643 2.94901 89.6678 -15.3898 4.77888 1.91894 64.5677 2.96536 -0.187705 31.3108 0.992336 0.964262 173.494 2.87655 91.1513 -14.5848 -6.25211 -0.0245804 64.6305 -4.16856 2.04065 29.3234 -0.739805 0.65573 -0.267513 8.19899 -90.2865 10.4741 -0.66429 -0.510443 -1.19677 -0.686113 -0.480715 -23.7319 -0.480173 -0.686489 -3.71928 -0.480167 -0.686485 95.48 -51.8056 -92.1463 26.3798 -5.2116 -16.0206 4.81506 -1.70977 -13.8655 -20.8592 -0.666001 -1.51366 -82.0314 -51.8486 90.8703 -38.819 -18.8299 -23.7339 -0.397835 56.4034 0.00170178 3.87958 -0.475157 -13.4959 -3.2274 -0.244854 2.55786 -21.4511 -0.957173 2.46107 
-8.52051 97.2293 4.56402 135.116 -85.6554 135.709 -178.023 3.78098 89.2073 -15.0238 4.12702 1.78936 64.0721 2.68455 -0.337456 30.8536 0.816207 0.620416 173.278 4.37827 90.5852 -15.3667 -6.87191 0.233375 64.5359 -3.91573 1.89302 29.1998 -0.578366 0.698611 -0.232755 8.60827 -90.2348 9.65615 -0.570092 -0.422062 -2.01473 -0.588105 -0.396569 -24.55 -0.41689 -0.573883 -4.5373 -0.41689 -0.573885 94.8634 -51.9092 -93.0665 25.0216 -6.7103 -17.3877 4.39977 -2.10234 -15.3274 -20.354 -0.764062 -0.855896 -82.2364 -51.8432 90.5662 -38.0065 -17.3351 -26.0259 -1.27192 55.2562 0.000153452 4.97828 -0.568685 -13.6957 -3.64165 -0.175366 2.69153 -20.3464 -0.960969 3.02475 
-8.41668 97.1787 3.38755 121.25 -86.4905 122.001 -178.703 5.98762 89.0392 -15.3734 3.91499 1.92234 63.6889 2.32966 -0.0121044 30.4441 0.638797 0.817607 173.695 6.48714 90.8384 -15.4741 -6.58555 0.300402 64.2366 -3.59602 1.96937 28.6989 0.0823513 0.646213 -0.193498 8.94912 -90.3003 8.97404 -0.519849 -0.558729 -2.69692 -0.543937 -0.535321 -25.2315 -0.327899 -0.689123 -5.21886 -0.327899 -0.689143 94.2469 -51.2359 -94.0978 23.878 -8.74009 -18.6105 3.87938 -2.91221 -16.9065 -20.2598 -0.841554 -0.392467 -82.614 -52.8975 90.0959 -37.1467 -17.2587 -28.7226 -1.34112 56.8154 -0.00159898 3.37024 -0.393279 -12.8582 -3.47768 0.299137 4.26226 -19.4473 -0.45802 1.87555 
